<?xml version="1.0" standalone="no"?>
<!DOCTYPE svg PUBLIC "-//W3C//DTD SVG 20010904//EN" "http://www.w3.org/TR/2001/REC-SVG-20010904/DTD/svg10.dtd">
<!-- Created using Krita: https://krita.org -->
<svg xmlns="http://www.w3.org/2000/svg" 
    xmlns:xlink="http://www.w3.org/1999/xlink"
    xmlns:krita="http://krita.org/namespaces/svg/krita"
    xmlns:sodipodi="http://sodipodi.sourceforge.net/DTD/sodipodi-0.dtd"
    width="480.24pt"
    height="480.24pt"
    viewBox="0 0 480.24 480.24">
<defs/>
<path id="shape0" transform="matrix(0.936708860759493 0 0 0.936708860759493 19.2000029707278 19.2000029707278)" fill="#ffffff" fill-rule="evenodd" stroke="#000000" stroke-width="0.0108" stroke-linecap="square" stroke-linejoin="bevel" d="M471.438 235.719L471.358 229.539L471.121 223.398L470.729 217.298L470.182 211.241L469.484 205.229L468.636 199.264L467.64 193.348L466.498 187.483L465.212 181.671L463.784 175.913L462.216 170.212L460.51 164.57L458.668 158.988L456.691 153.469L454.582 148.014L452.342 142.626L449.974 137.306L447.479 132.056L444.86 126.878L442.118 121.775L439.255 116.747L436.274 111.798L433.176 106.928L429.963 102.141L426.636 97.4369L423.199 92.8189L419.653 88.2887L416 83.8482L412.241 79.4993L408.379 75.2439L404.416 71.084L400.354 67.0215L396.194 63.0584L391.939 59.1966L387.59 55.4381L383.149 51.7848L378.619 48.2386L374.001 44.8014L369.297 41.4753L364.51 38.2622L359.64 35.1639L354.691 32.1825L349.663 29.3199L344.56 26.578L339.382 23.9587L334.132 21.4641L328.812 19.096L323.424 16.8563L317.969 14.7471L312.45 12.7703L306.868 10.9278L301.226 9.22153L295.525 7.65343L289.767 6.22553L283.955 4.93962L278.09 3.79774L272.174 2.80182L266.209 1.9538L260.197 1.2556L254.14 0.70919L248.04 0.31649L241.899 0.07944L235.719 0L229.539 0.07944L223.398 0.31649L217.298 0.70919L211.241 1.2556L205.229 1.9538L199.264 2.80182L193.348 3.79774L187.483 4.93962L185.433 5.39303L187.516 5.57543L191.739 6.05173L195.93 6.63023L200.086 7.30963L204.206 8.08863L208.29 8.96573L212.334 9.93983L216.34 11.0095L220.303 12.1735L224.225 13.4304L228.102 14.779L231.934 16.2178L235.72 17.7456L239.457 19.361L243.146 21.0628L246.783 22.8496L250.369 24.72L253.9 26.6728L257.378 28.7066L260.799 30.8202L264.162 33.0121L267.466 35.281L270.711 37.6257L273.893 40.0449L277.013 42.537L280.068 45.101L283.058 47.7354L285.98 50.4389L288.834 53.2102L291.618 56.0479L294.331 58.9508L296.972 61.9175L299.539 64.9467L302.03 68.0371L304.445 71.1873L306.781 74.396L309.039 77.6619L311.215 80.9837L313.31 84.3601L315.321 87.7896L317.247 91.2711L319.087 94.8031L320.84 98.3849L322.503 102.014L324.077 105.69L325.559 109.411L326.947 113.176L328.242 116.983L329.441 120.832L330.542 124.721L331.545 128.649L332.449 132.614L333.251 136.615L333.951 140.651L334.546 144.72L335.037 148.821L335.421 152.953L335.697 157.114L335.863 161.303L335.919 165.519L335.863 169.735L335.697 173.924L335.421 178.085L335.037 182.217L334.546 186.318L333.951 190.387L333.251 194.423L332.449 198.424L331.545 202.389L330.542 206.317L329.441 210.206L328.242 214.055L326.947 217.862L325.559 221.627L324.077 225.348L322.503 229.024L320.84 232.653L319.087 236.235L317.247 239.767L315.321 243.248L313.31 246.678L311.215 250.054L309.039 253.376L306.781 256.642L304.445 259.851L302.03 263.001L299.539 266.091L296.972 269.12L294.331 272.087L291.618 274.99L288.834 277.828L285.98 280.599L283.058 283.303L280.068 285.937L277.013 288.501L273.893 290.993L270.711 293.412L267.466 295.757L264.162 298.026L260.799 300.218L257.378 302.331L253.9 304.365L250.369 306.318L246.783 308.188L243.146 309.975L239.457 311.677L235.72 313.292L231.934 314.82L228.102 316.259L224.225 317.607L220.303 318.864L216.34 320.028L212.334 321.098L208.29 322.072L204.206 322.949L200.086 323.728L195.93 324.408L191.739 324.986L187.516 325.462L183.261 325.835L178.975 326.103L174.661 326.265L170.319 326.319L165.977 326.265L161.663 326.103L157.377 325.835L153.122 325.462L148.899 324.986L144.708 324.408L140.552 323.728L136.432 322.949L132.348 322.072L128.304 321.098L124.298 320.028L120.335 318.864L116.413 317.607L112.536 316.259L108.704 314.82L104.918 313.292L101.181 311.677L97.4919 309.975L93.8547 308.188L90.2693 306.318L86.7374 304.365L83.2603 302.331L79.8393 300.218L76.4759 298.026L73.1714 295.757L69.9272 293.412L66.7445 290.993L63.6249 288.501L60.5697 285.937L57.5801 283.303L54.6577 280.599L51.8037 277.828L49.0195 274.99L46.3064 272.087L43.6659 269.12L41.0994 266.091L38.608 263.001L36.1934 259.851L33.8567 256.642L31.5993 253.376L29.4227 250.054L27.3282 246.678L25.3171 243.248L23.3908 239.767L21.5507 236.235L19.7981 232.653L18.1344 229.024L16.561 225.348L15.0793 221.627L13.6905 217.862L12.396 214.055L11.1973 210.206L10.0957 206.317L9.09253 202.389L8.18913 198.424L7.38693 194.423L6.68733 190.387L6.09153 186.318L5.77773 183.695L4.93962 187.483L3.79774 193.348L2.80182 199.264L1.9538 205.229L1.2556 211.241L0.70919 217.298L0.31649 223.398L0.07944 229.539L0 235.719L0.07944 241.899L0.31649 248.04L0.70919 254.14L1.2556 260.197L1.9538 266.209L2.80182 272.174L3.79774 278.09L4.93962 283.955L6.22553 289.767L7.65343 295.525L9.22153 301.226L10.9278 306.868L12.7703 312.45L14.7471 317.969L16.8563 323.424L19.096 328.812L21.4641 334.132L23.9587 339.382L26.578 344.56L29.3199 349.663L32.1825 354.691L35.1639 359.64L38.2622 364.51L41.4753 369.297L44.8014 374.001L48.2386 378.619L51.7848 383.149L55.4381 387.59L59.1966 391.939L63.0584 396.194L67.0215 400.354L71.084 404.416L75.2439 408.379L79.4993 412.241L83.8482 416L88.2887 419.653L92.8189 423.199L97.4369 426.636L102.141 429.963L106.928 433.176L111.798 436.274L116.747 439.255L121.775 442.118L126.878 444.86L132.056 447.479L137.306 449.974L142.626 452.342L148.014 454.582L153.469 456.691L158.988 458.668L164.57 460.51L170.212 462.216L175.913 463.784L181.671 465.212L187.483 466.498L193.348 467.64L199.264 468.636L205.229 469.484L211.241 470.182L217.298 470.729L223.398 471.121L229.539 471.358L235.719 471.438L241.899 471.358L248.04 471.121L254.14 470.729L260.197 470.182L266.209 469.484L272.174 468.636L278.09 467.64L283.955 466.498L289.767 465.212L295.525 463.784L301.226 462.216L306.868 460.51L312.45 458.668L317.969 456.691L323.424 454.582L328.812 452.342L334.132 449.974L339.382 447.479L344.56 444.86L349.663 442.118L354.691 439.255L359.64 436.274L364.51 433.176L369.297 429.963L374.001 426.636L378.619 423.199L383.149 419.653L387.59 416L391.939 412.241L396.194 408.379L400.354 404.416L404.416 400.354L408.379 396.194L412.241 391.939L416 387.59L419.653 383.149L423.199 378.619L426.636 374.001L429.963 369.297L433.176 364.51L436.274 359.64L439.255 354.691L442.118 349.663L444.86 344.56L447.479 339.382L449.974 334.132L452.342 328.812L454.582 323.424L456.691 317.969L458.668 312.45L460.51 306.868L462.216 301.226L463.784 295.525L465.212 289.767L466.498 283.955L467.64 278.09L468.636 272.174L469.484 266.209L470.182 260.197L470.729 254.14L471.121 248.04L471.358 241.899L471.438 235.719" sodipodi:nodetypes="cccccccccccccccccccccccccccccccccccccccccccccccccccccccccccccccccccccccccccccccccccccccccccccccccccccccccccccccccccccccccccccccccccccccccccccccccccccccccccccccccccccccccccccccccccccccccccccccccccccccccccccccccccccccccccccccccccccccccccccccccccccccccccccccccccccccccccccccccccccccccccccccccccccccccccccccccccccccccccccccccccccccccccccccccccccccccccccccccccccccccccccccccccccccccccccccccccccc"/><circle id="shape1" transform="matrix(0.936708860759493 0 0 0.936708860759493 66.3341905656645 61.837988034019)" r="117.6" cx="117.6" cy="117.6" fill="#ff7340" fill-rule="evenodd" stroke="#ff7340" stroke-width="2.196" stroke-linecap="square" stroke-linejoin="bevel"/>
</svg>
